<svg width="35" height="35" viewBox="0 0 35 35" fill="none" xmlns="http://www.w3.org/2000/svg">
<path d="M19.0039 30.625H29.5312C30.1362 30.625 30.625 30.1362 30.625 29.5312V19.0039C30.625 18.8535 30.502 18.7305 30.3516 18.7305H19.0039C18.8535 18.7305 18.7305 18.8535 18.7305 19.0039V30.3516C18.7305 30.502 18.8535 30.625 19.0039 30.625ZM20.918 20.918H28.4375V28.4375H20.918V20.918ZM25.6348 23.4473H23.7207C23.5703 23.4473 23.4473 23.5703 23.4473 23.7207V25.6348C23.4473 25.7852 23.5703 25.9082 23.7207 25.9082H25.6348C25.7852 25.9082 25.9082 25.7852 25.9082 25.6348V23.7207C25.9082 23.5703 25.7852 23.4473 25.6348 23.4473ZM19.0039 16.2695H30.3516C30.502 16.2695 30.625 16.1465 30.625 15.9961V5.46875C30.625 4.86377 30.1362 4.375 29.5312 4.375H19.0039C18.8535 4.375 18.7305 4.49805 18.7305 4.64844V15.9961C18.7305 16.1465 18.8535 16.2695 19.0039 16.2695ZM20.918 6.5625H28.4375V14.082H20.918V6.5625ZM25.6348 9.0918H23.7207C23.5703 9.0918 23.4473 9.21484 23.4473 9.36523V11.2793C23.4473 11.4297 23.5703 11.5527 23.7207 11.5527H25.6348C25.7852 11.5527 25.9082 11.4297 25.9082 11.2793V9.36523C25.9082 9.21484 25.7852 9.0918 25.6348 9.0918ZM5.46875 30.625H15.9961C16.1465 30.625 16.2695 30.502 16.2695 30.3516V19.0039C16.2695 18.8535 16.1465 18.7305 15.9961 18.7305H4.64844C4.49805 18.7305 4.375 18.8535 4.375 19.0039V29.5312C4.375 30.1362 4.86377 30.625 5.46875 30.625ZM6.5625 20.918H14.082V28.4375H6.5625V20.918ZM11.2793 23.4473H9.36523C9.21484 23.4473 9.0918 23.5703 9.0918 23.7207V25.6348C9.0918 25.7852 9.21484 25.9082 9.36523 25.9082H11.2793C11.4297 25.9082 11.5527 25.7852 11.5527 25.6348V23.7207C11.5527 23.5703 11.4297 23.4473 11.2793 23.4473ZM4.64844 16.2695H6.28906C6.43945 16.2695 6.5625 16.1465 6.5625 15.9961V11.416H9.22852V15.9961C9.22852 16.1465 9.35156 16.2695 9.50195 16.2695H15.9961C16.1465 16.2695 16.2695 16.1465 16.2695 15.9961V4.64844C16.2695 4.49805 16.1465 4.375 15.9961 4.375H14.3555C14.2051 4.375 14.082 4.49805 14.082 4.64844V12.9883H11.416V9.50195C11.416 9.35156 11.293 9.22852 11.1426 9.22852H4.64844C4.49805 9.22852 4.375 9.35156 4.375 9.50195V15.9961C4.375 16.1465 4.49805 16.2695 4.64844 16.2695ZM9.50195 6.5625H11.1426C11.293 6.5625 11.416 6.43945 11.416 6.28906V4.64844C11.416 4.49805 11.293 4.375 11.1426 4.375H9.50195C9.35156 4.375 9.22852 4.49805 9.22852 4.64844V6.28906C9.22852 6.43945 9.35156 6.5625 9.50195 6.5625ZM4.64844 6.5625H6.28906C6.43945 6.5625 6.5625 6.43945 6.5625 6.28906V4.64844C6.5625 4.49805 6.43945 4.375 6.28906 4.375H4.64844C4.49805 4.375 4.375 4.49805 4.375 4.64844V6.28906C4.375 6.43945 4.49805 6.5625 4.64844 6.5625Z" fill="black"/>
</svg>
